# xmcd
#
# Track frame offsets: 
#        150
#        16874
#        33470
#        55380
#        73527
#        91665
#        114605
#        125387
#        146140
#        161542
#        198447
#
# Disc length: 2775 seconds
#
# Revision: 1
# Processed by: cddbd v1.5.2PL0 Copyright (c) Steve Scherf et al.
# Submitted via: ExactAudioCopy v1.0b3
#
DISCID=930ad50b
DTITLE=甲斐バンド - ガラスの動物園 ExMF SERIES TOCT-10832
DYEAR=1976
DGENRE=Rock
TTITLE0=らせん階段
TTITLE1=黒い夏
TTITLE2=新宿
TTITLE3=テレフォン・ノイローゼ
TTITLE4=東京の一夜
TTITLE5=昨日鳴る鐘の音
TTITLE6=やせた女のブルース
TTITLE7=男と女のいる舗道
TTITLE8=あの日からの便り
TTITLE9=悪いうわさ
TTITLE10=ゆきずりの風
EXTD=YEAR: 1976
EXTT0=
EXTT1=
EXTT2=
EXTT3=
EXTT4=
EXTT5=
EXTT6=
EXTT7=
EXTT8=
EXTT9=
EXTT10=
PLAYORDER=
